<svg width="57" height="49" viewBox="0 0 57 49" fill="none" xmlns="http://www.w3.org/2000/svg">
<path d="M28.4187 48.3385C27.6669 48.3404 26.9221 48.1935 26.2273 47.9064C25.5325 47.6194 24.9012 47.1977 24.37 46.6658L4.79156 27.0874C3.24494 25.524 2.0249 23.6684 1.20253 21.6288C0.380154 19.5892 -0.0281163 17.4063 0.00150359 15.2073C0.0164054 13.1921 0.428728 11.1997 1.21485 9.34413C2.00098 7.48856 3.14546 5.80632 4.58275 4.39375C6.02003 2.98119 7.72188 1.86606 9.59081 1.11224C11.4597 0.358418 13.459 -0.0192801 15.4741 0.00077725C17.5253 -0.0198843 19.5598 0.371581 21.4569 1.15196C23.3539 1.93233 25.0749 3.08572 26.5179 4.54373L28.4187 6.44454L29.9774 4.88587C32.6688 2.12317 36.2702 0.429435 40.1146 0.118389C43.9589 -0.192657 47.7858 0.900059 50.8863 3.19415C52.6513 4.55332 54.1064 6.27293 55.1548 8.23845C56.2032 10.204 56.8208 12.3703 56.9664 14.5932C57.1121 16.8161 56.7825 19.0445 55.9996 21.13C55.2167 23.2155 53.9985 25.1103 52.426 26.6882L32.4674 46.6658C31.9362 47.1977 31.3049 47.6194 30.6101 47.9064C29.9153 48.1935 29.1705 48.3404 28.4187 48.3385ZM15.3981 3.7834C12.3768 3.78032 9.47282 4.95282 7.30063 7.0528C6.19321 8.11829 5.31255 9.3966 4.71153 10.811C4.11051 12.2253 3.80152 13.7466 3.80313 15.2833C3.78647 16.9738 4.10553 18.6507 4.74179 20.2169C5.37806 21.7831 6.31888 23.2074 7.50973 24.4072L27.0881 43.9857C27.2648 44.1638 27.4751 44.3052 27.7067 44.4017C27.9383 44.4982 28.1868 44.5479 28.4377 44.5479C28.6886 44.5479 28.9371 44.4982 29.1687 44.4017C29.4003 44.3052 29.6106 44.1638 29.7873 43.9857L49.7649 23.9891C50.9375 22.7916 51.8435 21.3596 52.4234 19.7871C53.0032 18.2146 53.2438 16.5372 53.1293 14.8652C53.0278 13.1759 52.5625 11.5286 51.7653 10.0358C50.9681 8.54312 49.8577 7.24026 48.5103 6.21644C46.1459 4.47319 43.2285 3.64893 40.3014 3.89722C37.3744 4.14551 34.6374 5.44942 32.6005 7.56602L29.7683 10.4743C29.5916 10.6524 29.3813 10.7938 29.1497 10.8903C28.9181 10.9868 28.6696 11.0365 28.4187 11.0365C28.1678 11.0365 27.9193 10.9868 27.6877 10.8903C27.4561 10.7938 27.2458 10.6524 27.0691 10.4743L23.8377 7.24288C21.6121 5.03656 18.608 3.79399 15.4741 3.7834H15.3981Z" fill="#E5E5E5"/>
</svg>
