<svg width="57" height="54" viewBox="0 0 57 54" fill="none" xmlns="http://www.w3.org/2000/svg">
<path d="M57 27.1937C57 23.3937 54.0312 21.375 49.875 21.375H37.8813C38.7125 18.1688 39.1875 15.0813 39.1875 12.4688C39.1875 2.1375 36.3375 0 33.8438 0C32.1812 0 30.9938 0.11875 29.3313 1.1875C28.8563 1.425 28.6187 1.9 28.5 2.375L26.7188 11.9938C24.8188 17.1 19.95 21.4938 16.0312 24.4625V49.875C17.3375 49.875 19 50.5875 20.5437 51.4187C22.4437 52.3687 24.4625 53.3187 26.7188 53.3187H43.7C47.2625 53.3187 49.875 50.4687 49.875 47.975C49.875 47.5 49.875 47.025 49.7562 46.6687C52.0125 45.8375 53.4375 43.9375 53.4375 41.8C53.4375 40.7313 53.2 39.7812 52.8438 39.0687C54.15 38.1187 55.575 36.575 55.575 34.675C55.575 33.725 55.1 32.5375 54.3875 31.7063C55.9312 30.5188 57 28.8562 57 27.1937ZM53.3187 27.1937C53.3187 29.45 50.9438 29.6875 50.5875 30.7562C50.2313 31.9437 52.0125 32.4188 52.0125 34.5563C52.0125 36.8125 49.2812 36.8125 48.925 37.8812C48.45 39.1875 49.7562 39.6625 49.7562 41.8C49.7562 41.9188 49.7562 42.0375 49.7562 42.1562C49.4 43.9375 46.6687 44.0563 46.1938 44.7688C45.7188 45.6 46.3125 46.075 46.3125 47.975C46.3125 49.0437 45.125 49.7562 43.7 49.7562H26.7188C25.4125 49.7562 23.75 49.0438 22.2063 48.2125C20.7813 47.5 19.3563 46.7875 17.8125 46.4313V27.55C22.2063 24.225 27.9063 19.1187 30.1625 12.9437C30.1625 12.825 30.1625 12.7063 30.2812 12.7063L31.9438 3.80001C32.5375 3.56251 33.0125 3.5625 33.9625 3.5625C34.3187 3.5625 35.7437 5.7 35.7437 12.4688C35.7437 15.0813 35.2688 18.05 34.3188 21.375H33.8438C32.8937 21.375 32.0625 22.2062 32.0625 23.1562C32.0625 24.1063 32.8937 24.9375 33.8438 24.9375H49.875C51.6562 24.9375 53.3187 25.7687 53.3187 27.1937Z" fill="#E5E5E5"/>
<path d="M14.25 53.4375H3.5625C1.54375 53.4375 0 51.8937 0 49.875V24.9375C0 22.9187 1.54375 21.375 3.5625 21.375H14.25C16.2687 21.375 17.8125 22.9187 17.8125 24.9375V49.875C17.8125 51.8937 16.2687 53.4375 14.25 53.4375ZM3.5625 24.9375V49.875H14.25V24.9375H3.5625Z" fill="#E5E5E5"/>
</svg>
