<svg width="57" height="57" viewBox="0 0 57 57" fill="none" xmlns="http://www.w3.org/2000/svg">
<path fill-rule="evenodd" clip-rule="evenodd" d="M38 31.6667H41.1667C41.1667 38.6623 35.4956 44.3333 28.5 44.3333C21.5044 44.3333 15.8333 38.6623 15.8333 31.6667H19C19 36.9134 23.2533 41.1667 28.5 41.1667C33.7467 41.1667 38 36.9134 38 31.6667ZM28.5 57C44.2401 57 57 44.2401 57 28.5C57 12.7599 44.2401 0 28.5 0C12.7599 0 0 12.7599 0 28.5C0 44.2401 12.7599 57 28.5 57ZM28.5 53.8333C42.4912 53.8333 53.8333 42.4912 53.8333 28.5C53.8333 14.5088 42.4912 3.16667 28.5 3.16667C14.5088 3.16667 3.16667 14.5088 3.16667 28.5C3.16667 42.4912 14.5088 53.8333 28.5 53.8333ZM19 25.3333C20.7489 25.3333 22.1667 23.9156 22.1667 22.1667C22.1667 20.4178 20.7489 19 19 19C17.2511 19 15.8333 20.4178 15.8333 22.1667C15.8333 23.9156 17.2511 25.3333 19 25.3333ZM38 25.3333C39.7489 25.3333 41.1667 23.9156 41.1667 22.1667C41.1667 20.4178 39.7489 19 38 19C36.2511 19 34.8333 20.4178 34.8333 22.1667C34.8333 23.9156 36.2511 25.3333 38 25.3333Z" fill="#E5E5E5"/>
</svg>
