<svg width="57" height="55" viewBox="0 0 57 55" fill="none" xmlns="http://www.w3.org/2000/svg">
<path d="M56.8509 20.8627C56.4756 19.7086 55.4519 18.8914 54.2456 18.7823L37.7913 17.2884L31.2885 2.06406C30.8084 0.945538 29.716 0.223633 28.5001 0.223633C27.2841 0.223633 26.1913 0.945538 25.7142 2.06406L19.2114 17.2884L2.75458 18.7823C1.54822 18.8936 0.526677 19.7107 0.149199 20.8627C-0.226105 22.0169 0.120497 23.2829 1.03288 24.083L13.471 34.9895L9.8036 51.1419C9.53527 52.3295 9.99625 53.5576 10.9817 54.27C11.5114 54.6549 12.1337 54.8471 12.7582 54.8471C13.2948 54.8471 13.8319 54.7044 14.3116 54.4174L28.5001 45.9337L42.6859 54.4174C43.7266 55.0393 45.0352 54.9823 46.0185 54.27C47.0039 53.5576 47.4649 52.3295 47.1966 51.1419L43.5292 34.9895L55.9673 24.083C56.8792 23.2829 57.2263 22.0195 56.8509 20.8627Z" fill="#7FA1F8"/>
</svg>
