<svg width="57" height="55" viewBox="0 0 57 55" fill="none" xmlns="http://www.w3.org/2000/svg">
<path d="M12.7578 54.6244C12.1333 54.6244 11.5132 54.4295 10.9839 54.0468C9.99802 53.3323 9.53748 52.1042 9.8058 50.9191L13.4728 34.7661L1.03675 23.8601C0.122615 23.062 -0.226599 21.7983 0.148708 20.6419C0.524015 19.4877 1.54513 18.6706 2.75411 18.5588L19.2085 17.065L25.714 1.84088C26.1936 0.722347 27.2861 0 28.4998 0C29.7136 0 30.806 0.722347 31.2857 1.83827L37.7912 17.065L54.243 18.5588C55.4545 18.6679 56.4757 19.4877 56.851 20.6419C57.2263 21.7961 56.8792 23.062 55.9651 23.8601L43.5291 34.764L47.1961 50.9165C47.4648 52.1042 47.0038 53.3323 46.0184 54.0447C45.0351 54.757 43.7239 54.8118 42.6884 54.1895L28.4998 45.7105L14.3112 54.1943C13.8315 54.4791 13.2971 54.6244 12.7578 54.6244ZM28.4998 42.0579C29.0391 42.0579 29.5731 42.2027 30.0533 42.4876L43.4438 50.4964L39.983 35.2506C39.736 34.1656 40.1044 33.0327 40.9428 32.2986L52.6852 22.0005L37.1497 20.5897C36.0312 20.4875 35.0692 19.7843 34.6322 18.7536L28.4998 4.3867L22.3601 18.7558C21.9278 19.7795 20.9659 20.4827 19.8499 20.5849L4.31231 21.9957L16.0543 32.2938C16.8953 33.0301 17.2632 34.1608 17.014 35.2484L13.5558 50.4938L26.9464 42.4876C27.4261 42.2027 27.9606 42.0579 28.4998 42.0579ZM19.0828 17.3594C19.0828 17.3594 19.0828 17.362 19.0802 17.3642L19.0828 17.3594ZM37.9121 17.3524L37.9147 17.3572C37.9147 17.3546 37.9147 17.3546 37.9121 17.3524Z" fill="#E5E5E5"/>
</svg>
